<svg xmlns="http://www.w3.org/2000/svg" width="1280" height="720" viewBox="0 0 1280 720" role="img" aria-labelledby="title desc">
  <title id="title">PgRelay admin console concept</title>
  <desc id="desc">A concept image showing a possible PgRelay operations view with job, queue, and worker status panels.</desc>
  <defs>
    <linearGradient id="page" x1="0" y1="0" x2="1" y2="1">
      <stop offset="0" stop-color="#f7faf9"/>
      <stop offset="1" stop-color="#eef4f1"/>
    </linearGradient>
    <filter id="shadow" x="-20%" y="-20%" width="140%" height="140%">
      <feDropShadow dx="0" dy="18" stdDeviation="18" flood-color="#16352d" flood-opacity="0.16"/>
    </filter>
  </defs>
  <rect width="1280" height="720" fill="url(#page)"/>
  <rect x="88" y="72" width="1104" height="576" rx="18" fill="#ffffff" filter="url(#shadow)"/>
  <rect x="88" y="72" width="1104" height="64" rx="18" fill="#102b24"/>
  <path d="M88 118h1104v28H88z" fill="#102b24"/>
  <circle cx="125" cy="104" r="7" fill="#f46d5e"/>
  <circle cx="150" cy="104" r="7" fill="#f4c95d"/>
  <circle cx="175" cy="104" r="7" fill="#70c98d"/>
  <text x="220" y="111" font-family="Inter, ui-sans-serif, system-ui, -apple-system, Segoe UI, sans-serif" font-size="19" font-weight="700" fill="#f6fbf9">PgRelay Admin API</text>
  <text x="1035" y="110" font-family="Inter, ui-sans-serif, system-ui, -apple-system, Segoe UI, sans-serif" font-size="15" fill="#b8d0c8">concept</text>

  <rect x="128" y="176" width="246" height="118" rx="10" fill="#f8fbfa" stroke="#d9e5e1"/>
  <text x="150" y="212" font-family="Inter, ui-sans-serif, system-ui, -apple-system, Segoe UI, sans-serif" font-size="15" font-weight="700" fill="#29443c">Pending jobs</text>
  <text x="150" y="262" font-family="Inter, ui-sans-serif, system-ui, -apple-system, Segoe UI, sans-serif" font-size="46" font-weight="800" fill="#102b24">42</text>
  <text x="235" y="261" font-family="Inter, ui-sans-serif, system-ui, -apple-system, Segoe UI, sans-serif" font-size="15" fill="#607870">oldest 18s</text>

  <rect x="402" y="176" width="246" height="118" rx="10" fill="#f8fbfa" stroke="#d9e5e1"/>
  <text x="424" y="212" font-family="Inter, ui-sans-serif, system-ui, -apple-system, Segoe UI, sans-serif" font-size="15" font-weight="700" fill="#29443c">Workers alive</text>
  <text x="424" y="262" font-family="Inter, ui-sans-serif, system-ui, -apple-system, Segoe UI, sans-serif" font-size="46" font-weight="800" fill="#102b24">3</text>
  <text x="475" y="261" font-family="Inter, ui-sans-serif, system-ui, -apple-system, Segoe UI, sans-serif" font-size="15" fill="#607870">claiming default</text>

  <rect x="676" y="176" width="246" height="118" rx="10" fill="#f8fbfa" stroke="#d9e5e1"/>
  <text x="698" y="212" font-family="Inter, ui-sans-serif, system-ui, -apple-system, Segoe UI, sans-serif" font-size="15" font-weight="700" fill="#29443c">Succeeded today</text>
  <text x="698" y="262" font-family="Inter, ui-sans-serif, system-ui, -apple-system, Segoe UI, sans-serif" font-size="46" font-weight="800" fill="#102b24">8.7k</text>
  <text x="806" y="261" font-family="Inter, ui-sans-serif, system-ui, -apple-system, Segoe UI, sans-serif" font-size="15" fill="#607870">p95 212ms</text>

  <rect x="950" y="176" width="202" height="118" rx="10" fill="#fff9f4" stroke="#efd8c7"/>
  <text x="972" y="212" font-family="Inter, ui-sans-serif, system-ui, -apple-system, Segoe UI, sans-serif" font-size="15" font-weight="700" fill="#6c3b1e">Dead letter</text>
  <text x="972" y="262" font-family="Inter, ui-sans-serif, system-ui, -apple-system, Segoe UI, sans-serif" font-size="46" font-weight="800" fill="#7c2d12">2</text>
  <text x="1017" y="261" font-family="Inter, ui-sans-serif, system-ui, -apple-system, Segoe UI, sans-serif" font-size="15" fill="#8a6f5b">needs review</text>

  <rect x="128" y="330" width="706" height="260" rx="10" fill="#ffffff" stroke="#d9e5e1"/>
  <text x="150" y="366" font-family="Inter, ui-sans-serif, system-ui, -apple-system, Segoe UI, sans-serif" font-size="16" font-weight="800" fill="#102b24">Recent jobs</text>
  <text x="150" y="405" font-family="Inter, ui-sans-serif, system-ui, -apple-system, Segoe UI, sans-serif" font-size="13" font-weight="700" fill="#607870">status</text>
  <text x="265" y="405" font-family="Inter, ui-sans-serif, system-ui, -apple-system, Segoe UI, sans-serif" font-size="13" font-weight="700" fill="#607870">name</text>
  <text x="552" y="405" font-family="Inter, ui-sans-serif, system-ui, -apple-system, Segoe UI, sans-serif" font-size="13" font-weight="700" fill="#607870">queue</text>
  <text x="683" y="405" font-family="Inter, ui-sans-serif, system-ui, -apple-system, Segoe UI, sans-serif" font-size="13" font-weight="700" fill="#607870">attempts</text>
  <path d="M150 420h662" stroke="#e5eeeb"/>

  <g font-family="Inter, ui-sans-serif, system-ui, -apple-system, Segoe UI, sans-serif" font-size="14" fill="#233d35">
    <rect x="150" y="442" width="80" height="26" rx="13" fill="#e8f6ee"/>
    <text x="166" y="460" fill="#246b42" font-weight="700">succeeded</text>
    <text x="265" y="460">order.webhook</text>
    <text x="552" y="460">default</text>
    <text x="700" y="460">1 / 10</text>
    <path d="M150 482h662" stroke="#edf3f1"/>

    <rect x="150" y="500" width="80" height="26" rx="13" fill="#e8f0fb"/>
    <text x="171" y="518" fill="#255a9b" font-weight="700">leased</text>
    <text x="265" y="518">billing.sync</text>
    <text x="552" y="518">critical</text>
    <text x="700" y="518">2 / 10</text>
    <path d="M150 540h662" stroke="#edf3f1"/>

    <rect x="150" y="558" width="80" height="26" rx="13" fill="#fff0df"/>
    <text x="174" y="576" fill="#9a4f12" font-weight="700">pending</text>
    <text x="265" y="576">search.index</text>
    <text x="552" y="576">default</text>
    <text x="700" y="576">0 / 10</text>
  </g>

  <rect x="864" y="330" width="288" height="260" rx="10" fill="#ffffff" stroke="#d9e5e1"/>
  <text x="886" y="366" font-family="Inter, ui-sans-serif, system-ui, -apple-system, Segoe UI, sans-serif" font-size="16" font-weight="800" fill="#102b24">Queue controls</text>
  <rect x="886" y="394" width="244" height="48" rx="8" fill="#f8fbfa" stroke="#e0ebe7"/>
  <text x="906" y="424" font-family="Inter, ui-sans-serif, system-ui, -apple-system, Segoe UI, sans-serif" font-size="15" font-weight="700" fill="#29443c">default</text>
  <circle cx="1104" cy="418" r="7" fill="#2f9e62"/>
  <rect x="886" y="458" width="244" height="48" rx="8" fill="#f8fbfa" stroke="#e0ebe7"/>
  <text x="906" y="488" font-family="Inter, ui-sans-serif, system-ui, -apple-system, Segoe UI, sans-serif" font-size="15" font-weight="700" fill="#29443c">critical</text>
  <circle cx="1104" cy="482" r="7" fill="#2f9e62"/>
  <rect x="886" y="522" width="244" height="48" rx="8" fill="#fff9f4" stroke="#efd8c7"/>
  <text x="906" y="552" font-family="Inter, ui-sans-serif, system-ui, -apple-system, Segoe UI, sans-serif" font-size="15" font-weight="700" fill="#6c3b1e">webhooks-paused</text>
  <circle cx="1104" cy="546" r="7" fill="#d97706"/>

  <text x="128" y="626" font-family="Inter, ui-sans-serif, system-ui, -apple-system, Segoe UI, sans-serif" font-size="13" fill="#607870">Concept image. PgRelay currently ships the admin API and CLI.</text>
</svg>
